<?xml version="1.0" standalone="no"?>
<!DOCTYPE svg PUBLIC "-//W3C//DTD SVG 20010904//EN"
 "http://www.w3.org/TR/2001/REC-SVG-20010904/DTD/svg10.dtd">
<svg version="1.0" xmlns="http://www.w3.org/2000/svg"
 width="800.000000pt" height="534.000000pt" viewBox="0 0 800.000000 534.000000"
 preserveAspectRatio="xMidYMid meet">

<g transform="translate(0.000000,534.000000) scale(0.100000,-0.100000)"
fill="#000000" stroke="none">
<path d="M4662 4435 c-18 -8 -70 -50 -115 -93 -45 -43 -116 -103 -157 -133
-133 -98 -174 -159 -175 -259 0 -54 6 -77 32 -130 18 -36 45 -81 61 -100 l29
-34 1 114 c1 127 11 170 41 170 24 0 39 -19 47 -59 4 -17 10 -34 14 -36 12 -7
40 71 40 110 0 53 28 114 61 130 66 35 170 3 216 -66 14 -22 34 -67 43 -102
l18 -62 36 75 c70 146 84 312 34 403 -41 74 -144 107 -226 72z"/>
<path d="M2772 4369 c-61 -13 -94 -65 -91 -145 0 -22 -8 -64 -20 -94 -27 -73
-29 -225 -4 -278 l18 -37 7 68 c8 80 31 130 80 169 30 25 38 27 62 18 37 -14
134 -12 171 4 65 28 157 -40 169 -125 16 -102 17 -105 32 -84 17 23 19 201 3
260 -13 46 -70 121 -100 130 -12 4 -37 18 -56 31 -20 13 -44 24 -54 24 -11 0
-19 6 -19 13 0 8 -9 22 -21 32 -17 16 -24 17 -51 7 -17 -6 -36 -8 -42 -3 -18
14 -49 18 -84 10z"/>
<path d="M7048 4355 c-19 -41 5 -97 72 -168 45 -49 62 -75 70 -110 17 -78 51
-299 47 -304 -3 -2 -14 16 -26 40 -48 100 -140 150 -175 95 -26 -43 62 -135
164 -172 l47 -17 7 -67 c3 -37 9 -143 12 -237 l5 -170 -23 50 c-47 102 -91
174 -139 228 -29 32 -49 65 -49 79 -1 70 -102 161 -300 269 -52 29 -140 86
-195 127 -108 81 -216 138 -284 150 -40 7 -43 9 -60 60 -30 88 -75 122 -163
122 -59 0 -133 -30 -249 -102 l-67 -41 -31 -156 c-17 -86 -31 -162 -31 -169 0
-7 49 21 109 63 69 47 112 71 116 64 4 -6 -3 -18 -16 -27 -13 -9 -154 -108
-314 -220 -159 -111 -291 -207 -293 -211 -5 -14 111 -23 240 -19 l116 3 73 50
c41 28 106 76 146 108 40 31 77 57 82 57 10 0 42 -122 43 -167 1 -20 -30 -91
-91 -208 -101 -195 -121 -255 -122 -360 -2 -122 32 -204 106 -255 43 -30 193
-86 202 -76 6 6 -40 26 -58 26 -22 0 -136 59 -162 84 -67 63 -94 203 -63 326
17 64 188 418 194 400 7 -19 -30 -136 -72 -234 -98 -225 -100 -342 -6 -448 36
-42 151 -128 169 -128 5 0 14 21 20 46 14 56 39 107 97 197 l44 67 88 0 c93 0
166 18 230 57 37 23 117 96 130 119 14 25 46 9 105 -50 62 -62 108 -145 137
-246 16 -59 22 -119 28 -275 9 -264 9 -423 -1 -462 l-9 -33 47 20 c25 11 66
33 90 50 25 17 45 29 45 26 0 -15 -121 -368 -141 -411 -22 -49 -23 -49 -26
-20 -5 40 -45 289 -47 292 -1 2 -20 -6 -41 -17 -25 -13 -59 -20 -92 -20 -64 0
-70 -9 -55 -83 6 -29 9 -53 8 -55 -14 -14 -176 -33 -327 -38 l-187 -7 -6 -36
c-3 -20 -8 -74 -12 -120 -6 -69 -5 -83 6 -76 10 6 12 4 6 -11 -5 -10 -11 -38
-13 -61 -5 -39 -3 -43 28 -63 34 -21 82 -23 122 -6 13 7 17 3 17 -16 0 -13 -7
-33 -15 -44 -19 -25 -19 -52 1 -72 13 -12 15 -27 10 -66 -3 -28 -6 -135 -6
-238 0 -154 -3 -189 -15 -202 -12 -11 -22 -13 -39 -6 -18 7 -26 5 -30 -6 -3
-8 -17 -14 -31 -14 l-25 0 0 179 c0 154 -2 180 -17 192 -18 15 -200 25 -259
15 l-34 -7 -2 -161 -3 -162 -160 -33 -160 -32 -597 -1 -598 0 0 443 0 442 -64
-3 -65 -4 6 -206 c5 -184 3 -223 -17 -349 l-22 -143 -235 0 -234 0 3 -72 3
-72 120 -18 c184 -28 437 -82 768 -164 392 -97 531 -128 740 -164 227 -38 365
-50 582 -50 348 1 606 57 890 195 153 74 270 155 380 262 l80 78 -162 3 c-90
1 -163 4 -163 5 0 1 8 25 19 52 10 28 22 68 25 91 l7 41 62 -9 c122 -18 300
15 382 70 112 76 82 197 -58 233 -66 16 -141 7 -280 -36 -64 -19 -119 -35
-122 -35 -3 0 -5 8 -5 18 0 9 -17 67 -38 129 -35 100 -37 115 -26 142 l12 30
59 -16 c79 -22 239 -22 323 0 222 59 334 204 208 272 -33 17 -42 18 -82 7 -24
-6 -145 -64 -267 -127 -122 -63 -224 -114 -225 -112 -2 2 16 57 40 123 25 65
61 171 81 235 l36 116 92 0 c59 0 113 6 151 17 131 39 254 123 276 190 21 66
-25 115 -94 100 -46 -10 -155 -77 -294 -182 -68 -51 -120 -87 -116 -80 4 7 20
30 35 51 56 77 125 272 137 386 l7 64 67 36 c80 43 149 107 189 176 49 85 33
128 -42 106 -54 -16 -109 -68 -161 -152 -23 -38 -45 -69 -49 -69 -3 0 -9 30
-11 68 -3 37 -15 95 -27 129 -11 34 -21 86 -21 115 l1 53 66 30 c158 70 290
268 196 291 -13 4 -36 1 -49 -7 -34 -18 -113 -116 -165 -205 l-44 -74 -2 67
c-2 38 -7 141 -13 230 l-11 161 48 49 c97 97 126 223 53 223 -49 0 -100 -82
-100 -163 0 -16 -4 -26 -10 -22 -5 3 -10 22 -10 40 0 19 -9 81 -20 137 -11 57
-25 140 -30 186 -11 88 -31 149 -62 195 -26 37 -73 38 -90 2z m-130 -598 c84
-58 121 -100 129 -150 5 -31 2 -35 -21 -41 -23 -6 -26 -12 -26 -47 0 -22 6
-52 14 -67 7 -15 16 -47 20 -71 10 -66 33 -98 118 -157 78 -56 118 -104 118
-144 0 -21 -1 -21 -35 9 -19 16 -54 35 -77 41 -73 18 -97 31 -128 66 -72 82
-87 151 -64 291 26 160 14 186 -143 310 -46 36 -83 66 -83 69 0 6 100 -55 178
-109z m-617 67 c36 -18 54 -57 64 -139 7 -61 33 -124 65 -160 10 -11 33 -49
51 -85 19 -36 59 -90 90 -121 91 -91 92 -94 27 -154 -43 -40 -70 -56 -124 -73
-83 -25 -160 -36 -168 -24 -3 5 8 43 25 85 16 43 32 96 35 119 l6 43 -53 -3
c-91 -5 -146 45 -171 157 -22 99 16 295 69 353 20 22 45 23 84 2z m284 -439
c7 -16 16 -41 20 -55 7 -23 4 -22 -31 12 -22 21 -49 56 -62 79 l-23 40 41 -23
c25 -13 47 -35 55 -53z m641 -141 c43 -16 44 -17 43 -63 0 -45 0 -46 -16 -23
-9 13 -49 46 -89 73 -76 53 -93 72 -112 127 -11 32 -8 30 59 -32 39 -36 90
-72 115 -82z m88 -249 c6 -28 5 -28 -14 8 -12 21 -18 43 -14 49 8 12 16 -5 28
-57z m-356 -1271 c5 -2 -10 -34 -17 -34 -4 0 -17 21 -30 48 l-23 47 34 -30
c18 -16 34 -30 36 -31z m-765 -561 c-7 -2 -21 -2 -30 0 -10 3 -4 5 12 5 17 0
24 -2 18 -5z m-65 -10 c-10 -2 -26 -2 -35 0 -10 3 -2 5 17 5 19 0 27 -2 18 -5z
m52 -158 c11 0 16 -13 18 -46 3 -40 0 -47 -18 -52 -17 -4 -20 -14 -22 -59 l-2
-53 -3 53 -4 52 -78 0 c-43 0 -93 3 -110 6 -29 6 -31 9 -31 53 l0 46 110 -3
110 -4 2 48 1 49 6 -45 c4 -31 11 -45 21 -45z"/>
<path d="M1332 4271 c-60 -21 -105 -59 -133 -114 -36 -70 -21 -163 33 -201
l21 -15 -23 -19 c-24 -19 -24 -19 -44 7 -32 40 -56 59 -118 91 -120 63 -181
32 -277 -141 -9 -15 -23 -40 -33 -56 -9 -16 -19 -47 -22 -68 -5 -37 -5 -36 8
9 20 67 32 74 28 18 -7 -106 65 -174 196 -187 99 -9 122 -15 122 -31 0 -7 21
-61 46 -119 41 -93 54 -112 111 -164 35 -33 82 -85 104 -115 34 -47 129 -129
129 -111 0 3 -22 34 -50 69 -27 35 -50 67 -50 71 0 3 14 4 31 0 22 -5 29 -4
25 4 -4 6 -17 11 -30 11 -28 0 -50 16 -79 59 -22 33 -23 37 -9 75 19 54 22
143 9 234 -9 61 -9 75 4 83 9 5 18 4 24 -4 16 -19 95 -55 150 -67 29 -7 76 -9
112 -5 70 7 76 2 88 -75 4 -25 11 -48 17 -51 18 -11 4 -139 -20 -185 -12 -23
-40 -58 -63 -78 -24 -20 -38 -36 -32 -36 18 0 82 70 105 113 13 25 23 69 26
110 l5 67 43 0 c39 0 53 8 131 71 48 39 87 75 85 81 -1 5 2 7 7 4 5 -4 44 16
86 43 41 27 72 52 68 54 -5 2 -21 7 -38 11 -78 19 -133 101 -175 261 -52 201
-124 267 -334 304 -93 17 -223 13 -284 -8z m166 -118 c-10 -2 -28 -2 -40 0
-13 2 -5 4 17 4 22 1 32 -1 23 -4z m133 -33 c103 -53 149 -130 149 -250 0 -41
5 -93 11 -115 12 -46 58 -98 101 -116 16 -6 27 -14 24 -16 -7 -7 -79 33 -98
54 -33 36 -48 90 -48 170 0 111 -13 147 -74 209 -41 40 -68 57 -117 73 -47 16
-54 20 -24 15 21 -3 56 -14 76 -24z m-38 -490 c38 0 67 -4 67 -10 0 -15 -110
-11 -150 6 -22 9 -26 12 -10 9 14 -2 55 -5 93 -5z m-274 -157 c1 -38 -4 -88
-12 -113 l-13 -45 -16 40 c-15 39 -15 44 8 110 13 39 24 71 24 73 0 1 2 2 3 2
2 0 5 -30 6 -67z m-70 -154 c17 -27 26 -49 22 -49 -15 0 -79 77 -102 122 l-21
43 35 -34 c20 -18 49 -56 66 -82z"/>
<path d="M5641 4116 c-35 -25 -64 -46 -66 -48 -7 -6 -46 -310 -41 -315 4 -4
105 63 106 70 0 1 16 76 34 167 19 91 33 166 32 167 -1 2 -31 -17 -65 -41z"/>
<path d="M5490 4004 c-111 -88 -222 -188 -355 -318 l-80 -79 60 -29 c109 -51
106 -52 254 52 72 50 131 97 131 103 0 7 9 77 20 157 10 79 18 145 17 147 -2
1 -23 -14 -47 -33z"/>
<path d="M741 3694 c-1 -31 53 -101 97 -123 60 -31 104 -35 167 -16 75 21 67
27 -10 8 -49 -13 -68 -14 -103 -4 -53 15 -125 79 -140 123 -7 24 -10 27 -11
12z"/>
<path d="M3085 3383 c24 -77 20 -126 -13 -161 -37 -39 -103 -58 -153 -43 -79
24 -122 83 -122 168 0 54 -3 58 -44 47 -16 -4 -23 -16 -28 -49 -18 -121 89
-234 222 -235 67 0 128 24 175 68 63 60 71 113 29 208 -17 38 -24 44 -50 44
l-30 0 14 -47z"/>
<path d="M4725 3311 c0 -54 -4 -72 -23 -97 -51 -68 -160 -96 -230 -60 -37 19
-72 88 -72 140 l0 38 -57 -7 c-119 -15 -178 -41 -253 -111 -80 -76 -140 -182
-220 -392 l-49 -127 32 -13 c18 -7 94 -39 170 -70 l137 -56 0 -40 c0 -69 32
-281 44 -288 21 -14 348 1 364 17 3 3 6 13 7 23 2 30 26 64 41 58 10 -4 14 2
14 19 0 13 8 29 18 35 16 11 16 11 -2 6 -27 -9 -46 12 -46 50 0 36 4 39 83 50
26 3 47 2 47 -2 1 -5 5 -28 9 -51 8 -40 7 -42 -13 -39 -11 2 -15 1 -8 -1 7 -3
9 -10 6 -16 -4 -7 -4 -9 1 -5 14 13 45 -11 38 -29 -5 -13 -2 -15 15 -11 13 4
27 -1 37 -13 17 -17 19 -17 69 1 65 24 146 40 197 40 34 0 40 3 36 18 -3 9 -8
59 -12 110 l-7 93 41 44 c43 46 187 239 193 257 3 7 22 5 58 -7 30 -10 79 -18
109 -19 50 -1 56 1 64 24 6 16 5 41 -2 68 -10 34 -16 42 -35 42 -14 0 -53 9
-88 20 -34 11 -66 20 -70 20 -4 0 -13 -19 -19 -42 -7 -24 -17 -47 -22 -53 -9
-10 -8 2 9 85 4 19 2 30 -5 30 -14 0 -14 24 0 73 8 30 14 37 28 32 15 -4 21 3
31 42 7 27 15 41 17 31 2 -9 0 -33 -5 -52 -11 -38 -12 -37 77 -65 48 -16 61
-14 61 9 0 28 18 25 32 -5 6 -14 15 -25 20 -25 4 0 8 -10 8 -22 0 -44 19 -2
46 103 23 88 26 110 15 122 -16 20 -150 64 -220 73 -49 6 -54 5 -48 -10 4 -9
3 -15 -2 -12 -9 6 -18 -20 -83 -248 l-34 -118 -56 73 c-97 129 -182 205 -283
255 -49 24 -117 50 -150 57 l-60 14 0 -66z m745 9 c30 -10 46 -19 35 -19 -17
0 -109 36 -95 38 3 0 30 -8 60 -19z m-799 -467 c13 -16 12 -17 -3 -4 -17 13
-22 21 -14 21 2 0 10 -8 17 -17z m-90 -30 c-8 -15 -10 -15 -11 -2 0 17 10 32
18 25 2 -3 -1 -13 -7 -23z m116 -35 c-3 -7 -5 -2 -5 12 0 14 2 19 5 13 2 -7 2
-19 0 -25z m-173 7 c3 -8 1 -15 -4 -15 -6 0 -10 7 -10 15 0 8 2 15 4 15 2 0 6
-7 10 -15z m213 -17 c-3 -7 -5 -2 -5 12 0 14 2 19 5 13 2 -7 2 -19 0 -25z
m-57 -33 c-7 -9 -15 -13 -19 -10 -3 3 1 10 9 15 21 14 24 12 10 -5z m-120 -5
c0 -5 -2 -10 -4 -10 -3 0 -8 5 -11 10 -3 6 -1 10 4 10 6 0 11 -4 11 -10z"/>
<path d="M1140 3046 c-89 -23 -154 -80 -231 -199 -82 -126 -329 -647 -329
-693 0 -4 22 27 48 67 27 41 68 97 91 124 23 28 56 78 73 113 28 57 30 67 24
127 -4 41 -3 65 4 65 5 0 12 11 16 25 8 34 93 86 150 93 30 3 57 -1 83 -13 34
-15 49 -16 122 -6 159 21 326 9 523 -39 99 -24 136 -25 136 -6 0 7 -18 50 -41
95 -30 60 -52 90 -81 111 -44 32 -106 49 -117 32 -11 -18 -100 -35 -152 -29
-72 9 -153 49 -204 102 -48 49 -49 49 -115 31z"/>
<path d="M2642 2838 c-5 -7 -16 -26 -25 -43 -21 -42 -56 -77 -69 -69 -7 5 -8
-86 -3 -298 l8 -305 -49 -7 c-104 -15 -210 -39 -237 -54 -20 -12 -27 -23 -25
-41 3 -25 4 -25 123 -27 93 -1 145 -8 230 -29 214 -53 271 -65 320 -65 28 0
185 14 350 30 165 16 304 30 308 30 17 0 -6 21 -45 41 -23 12 -91 41 -152 66
-105 42 -113 43 -161 33 -191 -41 -244 -55 -273 -73 -39 -23 -122 -34 -122
-15 0 6 8 20 18 31 17 20 17 20 -15 2 -18 -11 -36 -16 -40 -11 -12 12 11 39
61 72 66 44 69 50 9 20 -29 -14 -55 -26 -58 -26 -12 0 -3 34 13 47 16 13 15
14 -8 9 -14 -3 -52 -8 -83 -12 l-57 -7 -1 129 c0 71 0 231 0 357 1 125 0 227
-2 227 -3 0 -9 -6 -15 -12z"/>
<path d="M3373 2719 c-7 -7 -8 -22 -3 -42 5 -18 16 -81 26 -142 9 -60 20 -114
25 -119 4 -5 21 -1 37 10 l30 19 -47 142 c-25 79 -48 143 -51 143 -4 0 -11 -5
-17 -11z"/>
<path d="M955 2670 c-4 -6 5 -10 24 -8 16 1 27 6 25 10 -7 11 -42 10 -49 -2z"/>
<path d="M6603 2648 c4 -12 19 -96 34 -186 27 -160 39 -190 64 -165 7 7 -3 58
-30 154 -22 79 -43 161 -47 182 -3 20 -11 37 -16 37 -6 0 -8 -10 -5 -22z"/>
<path d="M1945 2610 c-15 -6 -6 -9 34 -9 56 -1 65 8 14 14 -15 2 -37 0 -48 -5z"/>
<path d="M960 2606 c0 -2 7 -7 16 -10 8 -3 12 -2 9 4 -6 10 -25 14 -25 6z"/>
<path d="M1955 2530 c-3 -6 1 -7 9 -4 18 7 21 14 7 14 -6 0 -13 -4 -16 -10z"/>
<path d="M5356 2397 c-34 -11 -37 -14 -23 -25 13 -11 16 -10 20 5 4 13 5 12 6
-6 1 -20 3 -21 16 -11 8 7 12 17 9 22 -3 5 0 8 7 6 8 -1 15 1 17 7 5 14 -9 15
-52 2z"/>
<path d="M4735 2350 c4 -6 11 -8 16 -5 14 9 11 15 -7 15 -8 0 -12 -5 -9 -10z"/>
<path d="M5516 2319 c-9 -22 -16 -45 -16 -52 1 -15 200 -127 228 -127 30 0 72
21 72 35 0 20 -77 77 -177 132 l-92 51 -15 -39z"/>
<path d="M4790 2311 c0 -5 5 -13 10 -16 6 -3 10 -2 10 4 0 5 -4 13 -10 16 -5
3 -10 2 -10 -4z"/>
<path d="M4728 2283 c5 -21 7 -23 10 -9 2 10 0 22 -6 28 -6 6 -7 0 -4 -19z"/>
<path d="M6001 2180 c-16 -14 -19 -20 -8 -20 26 0 47 12 47 26 0 19 -10 17
-39 -6z"/>
<path d="M5020 2146 c0 -9 30 -14 35 -6 4 6 -3 10 -14 10 -12 0 -21 -2 -21 -4z"/>
<path d="M833 2078 c-15 -29 -33 -66 -41 -83 -7 -16 -18 -37 -25 -45 -7 -9 5
2 26 24 59 64 107 140 94 148 -21 13 -26 9 -54 -44z"/>
<path d="M5020 2121 c0 -5 -3 -18 -6 -28 -6 -16 -5 -16 9 2 19 23 21 35 7 35
-5 0 -10 -4 -10 -9z"/>
<path d="M5504 2095 c-6 -24 -2 -32 27 -56 46 -38 164 -83 219 -84 25 0 48 -4
51 -8 3 -4 66 5 140 20 l134 28 -65 3 c-36 2 -84 -2 -107 -7 -68 -17 -173 -13
-238 9 -108 37 -179 91 -139 107 26 10 107 -6 158 -31 28 -14 54 -23 58 -20
13 8 -1 24 -21 24 -10 0 -33 8 -52 17 -19 9 -62 19 -96 21 -61 4 -62 4 -69
-23z"/>
<path d="M5260 2076 c-25 -18 -54 -49 -65 -70 -11 -20 -30 -39 -42 -42 -12 -3
-27 -12 -34 -20 -6 -8 -18 -14 -26 -14 -12 0 -14 7 -9 32 6 30 5 31 -8 13 -28
-37 -20 -53 32 -62 26 -4 78 -7 117 -8 l70 0 6 45 c16 116 20 160 12 160 -4 0
-28 -15 -53 -34z"/>
<path d="M5070 2080 c-17 -32 -43 -60 -56 -60 -12 0 -24 -54 -23 -100 0 -25 0
-25 9 -3 7 16 14 21 27 16 15 -6 16 -4 6 8 -16 20 -6 54 30 107 16 24 27 46
24 49 -3 2 -11 -5 -17 -17z"/>
<path d="M4258 2018 c-21 -6 -38 -13 -38 -17 0 -22 31 -231 38 -256 8 -29 8
-29 73 62 l64 92 58 1 59 0 -51 53 -51 52 -19 -25 c-22 -28 -22 -28 -45 18
-18 34 -27 36 -88 20z"/>
<path d="M2022 1834 c-47 -33 -21 -56 55 -48 33 4 87 -4 178 -24 158 -36 225
-46 225 -34 0 17 56 33 86 26 16 -3 56 -20 88 -36 l59 -29 35 35 35 35 -24 5
c-13 3 -96 15 -184 26 -88 12 -223 30 -300 40 -173 24 -224 24 -253 4z"/>
<path d="M972 1518 c-46 -148 -54 -193 -55 -288 0 -58 6 -109 21 -163 12 -42
22 -79 22 -82 0 -3 -54 -5 -121 -5 l-120 0 21 -29 c37 -52 171 -178 249 -235
216 -155 469 -238 771 -253 l125 -5 125 47 c69 26 145 55 170 65 258 103 361
148 354 152 -5 3 -36 8 -69 12 -33 4 -72 9 -86 12 -22 4 -28 1 -33 -20 -4 -17
-16 -28 -33 -32 -15 -4 -136 -1 -268 7 -262 15 -381 15 -464 -2 -45 -9 -56 -8
-69 5 -13 12 -13 20 -4 41 14 30 7 27 142 50 165 27 401 31 535 7 74 -13 114
-16 123 -9 15 12 17 140 2 168 -22 40 -68 52 -210 57 l-135 5 -38 119 c-36
111 -40 119 -60 114 -12 -4 -101 -13 -197 -22 -96 -8 -222 -24 -280 -36 -136
-27 -240 -29 -302 -5 -45 18 -49 22 -65 75 -14 44 -18 91 -18 205 1 81 0 147
0 147 -1 0 -16 -46 -33 -102z"/>
<path d="M3361 1355 l1 -50 8 40 c5 22 4 44 -1 50 -5 5 -9 -11 -8 -40z"/>
<path d="M3414 1373 c3 -37 -1 -40 -20 -15 -7 9 -13 13 -13 7 -1 -16 37 -60
44 -53 4 3 2 26 -4 50 -8 32 -10 35 -7 11z"/>
<path d="M3452 1388 c-18 -18 -14 -56 7 -68 30 -15 38 -12 13 6 -26 18 -29 49
-4 63 9 6 12 11 7 11 -6 0 -16 -5 -23 -12z"/>
<path d="M3185 1380 c-16 -7 -17 -9 -3 -9 12 -1 18 -12 21 -38 l4 -38 1 42 c1
23 8 44 15 46 8 4 7 5 -3 6 -8 0 -24 -4 -35 -9z"/>
<path d="M3246 1348 c8 -48 14 -62 14 -30 0 31 37 30 43 0 2 -13 5 0 5 27 1
39 -1 45 -8 28 -10 -25 -40 -31 -40 -9 0 8 -5 18 -10 21 -7 4 -8 -8 -4 -37z"/>
<path d="M3333 1350 c0 -25 2 -35 4 -22 2 12 2 32 0 45 -2 12 -4 2 -4 -23z"/>
<path d="M3099 1359 c-8 -16 -8 -28 0 -45 18 -41 71 -25 71 21 0 44 -50 61
-71 24z m57 -13 c11 -45 -25 -65 -46 -25 -9 15 -8 24 1 35 18 21 38 17 45 -10z"/>
<path d="M2970 1351 c-5 -11 -10 -24 -10 -30 0 -18 31 -41 53 -40 20 1 20 2
-3 8 -35 10 -41 57 -8 70 l23 10 -22 0 c-12 1 -27 -8 -33 -18z"/>
<path d="M3041 1333 c-1 -41 1 -43 27 -42 16 1 20 3 10 6 -10 2 -21 17 -24 31
-10 47 -12 48 -13 5z"/>
<path d="M4996 1357 c-12 -9 -17 -23 -14 -42 3 -26 7 -30 33 -30 26 0 30 4 33
32 4 39 -24 60 -52 40z m42 -41 c-2 -13 -10 -21 -23 -21 -23 0 -32 30 -14 51
16 19 41 -1 37 -30z"/>
<path d="M3486 1352 c6 -4 14 -14 17 -22 4 -10 6 -8 6 8 1 15 -5 22 -16 22
-11 0 -14 -3 -7 -8z"/>
<path d="M4830 1326 c0 -19 5 -38 10 -41 6 -3 10 3 10 14 0 11 8 22 18 24 16
4 16 5 0 6 -10 0 -18 5 -18 10 0 5 8 12 18 14 10 3 6 5 -10 6 -25 1 -28 -2
-28 -33z"/>
<path d="M4894 1335 c-7 -29 10 -55 36 -55 10 0 23 7 30 15 16 19 5 65 -16 65
-14 0 -14 -2 -1 -15 20 -19 10 -55 -14 -55 -25 0 -36 27 -20 51 6 11 7 19 1
19 -5 0 -12 -11 -16 -25z"/>
<path d="M5072 1323 c-2 -40 0 -43 23 -43 32 0 55 41 35 65 -7 8 -18 15 -24
15 -6 0 -6 -4 2 -9 19 -11 11 -55 -10 -59 -13 -2 -18 6 -21 35 l-4 38 -1 -42z"/>
<path d="M3492 1222 l-2 -33 -25 28 -24 28 1 -50 c1 -39 2 -42 5 -16 l5 34 23
-29 c13 -16 25 -27 27 -24 2 3 1 25 -3 50 -5 38 -6 40 -7 12z"/>
<path d="M3523 1233 c-4 -11 1 -22 15 -31 28 -18 28 -29 0 -35 l-23 -4 23 -2
c32 -2 41 29 14 47 -27 17 -28 29 -4 35 16 4 16 5 -1 6 -10 0 -21 -7 -24 -16z"/>
<path d="M3364 1232 c-17 -11 -22 -35 -13 -60 7 -18 15 -23 36 -20 22 2 29 9
31 31 5 43 -24 70 -54 49z m41 -37 c0 -23 -4 -30 -20 -30 -21 0 -31 25 -21 51
11 28 41 12 41 -21z"/>
<path d="M3207 1223 c-3 -4 -9 -26 -13 -48 -7 -38 -7 -39 11 -21 17 17 20 17
30 2 22 -29 24 -17 6 24 -21 47 -27 54 -34 43z m17 -28 c3 -8 1 -15 -4 -15 -6
0 -10 7 -10 15 0 8 2 15 4 15 2 0 6 -7 10 -15z"/>
<path d="M3253 1223 c12 -3 17 -14 17 -38 0 -19 5 -37 11 -41 8 -5 9 5 4 34
-5 34 -4 41 12 45 10 3 0 5 -22 5 -22 0 -32 -2 -22 -5z"/>
<path d="M3323 1190 c0 -25 2 -35 4 -22 2 12 2 32 0 45 -2 12 -4 2 -4 -23z"/>
<path d="M3026 1204 c-9 -8 -16 -24 -16 -34 0 -19 25 -50 40 -50 15 0 40 31
40 50 0 19 -25 50 -40 50 -5 0 -16 -7 -24 -16z m47 -16 c14 -21 2 -48 -22 -48
-24 0 -37 36 -20 56 14 17 28 14 42 -8z"/>
<path d="M3100 1188 c0 -18 4 -40 9 -47 7 -10 9 0 8 32 -2 53 -17 65 -17 15z"/>
<path d="M3160 1189 l0 -31 -20 23 c-10 13 -19 20 -20 14 0 -5 11 -23 25 -40
l24 -30 1 48 c0 26 -2 47 -5 47 -3 0 -5 -14 -5 -31z"/>
<path d="M4765 1204 c-33 -33 4 -92 43 -68 9 6 18 20 20 31 3 20 -21 53 -38
53 -5 0 -16 -7 -25 -16z m45 -9 c16 -19 3 -55 -20 -55 -23 0 -33 26 -20 51 13
23 23 24 40 4z"/>
<path d="M5097 1209 c-19 -11 -24 -64 -6 -74 5 -4 21 -4 35 -1 19 5 24 13 24
36 0 34 -26 54 -53 39z m41 -38 c-2 -18 -9 -26 -23 -26 -23 0 -32 30 -15 50
18 21 42 7 38 -24z"/>
<path d="M5263 1213 c-18 -7 -16 -32 2 -39 21 -8 19 -32 -2 -37 -14 -4 -13 -5
4 -6 32 -2 40 19 14 40 -22 18 -21 46 1 33 7 -4 8 -2 4 4 -4 7 -8 12 -9 11 -1
0 -8 -3 -14 -6z"/>
<path d="M2930 1165 c0 -40 2 -45 23 -45 29 0 47 18 47 45 0 27 -18 45 -47 45
-21 0 -23 -5 -23 -45z m57 19 c8 -20 -8 -48 -31 -52 -12 -3 -16 4 -16 32 0 30
4 36 20 36 11 0 23 -7 27 -16z"/>
<path d="M4670 1170 c0 -35 3 -40 24 -40 13 0 29 7 36 14 15 19 9 58 -10 64
-12 4 -13 2 -2 -9 17 -18 15 -48 -4 -56 -20 -7 -32 11 -28 43 1 13 -2 24 -7
24 -5 0 -9 -18 -9 -40z"/>
<path d="M4841 1168 l2 -43 6 35 7 35 17 -32 c21 -40 31 -42 34 -6 1 16 -2 21
-7 13 -6 -9 -12 -6 -25 14 -25 37 -35 32 -34 -16z"/>
<path d="M4936 1186 c-3 -13 -9 -32 -12 -43 -5 -17 -5 -17 6 0 14 21 40 23 40
2 0 -8 4 -15 9 -15 13 0 -12 73 -26 77 -6 2 -13 -7 -17 -21z m24 -6 c0 -5 -5
-10 -11 -10 -5 0 -7 5 -4 10 3 6 8 10 11 10 2 0 4 -4 4 -10z"/>
<path d="M4993 1203 c12 -3 17 -16 19 -41 l1 -37 4 35 c3 19 10 38 16 42 7 4
-4 7 -23 7 -19 -1 -27 -3 -17 -6z"/>
<path d="M5053 1170 c0 -25 2 -35 4 -22 2 12 2 32 0 45 -2 12 -4 2 -4 -23z"/>
<path d="M5171 1168 l2 -43 6 35 c6 31 8 32 14 13 4 -11 14 -27 22 -33 13 -11
15 -6 14 31 -1 40 -2 41 -8 14 l-8 -30 -13 28 c-19 39 -30 33 -29 -15z"/>
</g>
</svg>
